<svg width="88" height="41" viewBox="0 0 88 41" fill="none" xmlns="http://www.w3.org/2000/svg">
<path d="M26.6514 0C28.3677 0 29.7596 1.39112 29.7598 3.10742V26.7031C29.7598 27.2377 30.193 27.6718 30.7275 27.6719H84.332C86.0484 27.6719 87.4404 29.0629 87.4404 30.7793V31.7988C87.4402 33.515 86.0483 34.9062 84.332 34.9062H81.1094C81.1094 37.8607 78.7143 40.2559 75.7598 40.2559C72.8054 40.2557 70.4102 37.8607 70.4102 34.9062H22.5186C22.5186 37.8607 20.1234 40.2559 17.1689 40.2559C14.307 40.2556 11.9704 38.0081 11.8271 35.1816L11.8203 34.9062H3.10742C1.39128 34.9061 0.000253552 33.5149 0 31.7988V21.6279C0 21.1386 0.115211 20.656 0.336914 20.2197L9.75293 1.69922C10.283 0.656585 11.3538 0 12.5234 0H26.6514ZM14.2705 3.28027C13.4966 3.28042 12.7856 3.70845 12.4238 4.39258L5.1709 18.1172C4.43588 19.5082 5.44446 21.1813 7.01758 21.1816H22.8057C23.9592 21.1815 24.8945 20.2463 24.8945 19.0928V5.36914C24.8944 4.21574 23.9591 3.28045 22.8057 3.28027H14.2705Z" fill="#053B1F"/>
<path d="M52 11H68C69.1046 11 70 11.8954 70 13V22C70 23.1046 69.1046 24 68 24H52C50.8954 24 50 23.1046 50 22V13C50 11.8954 50.8954 11 52 11Z" fill="#053B1F" stroke="#053B1F" stroke-width="2"/>
<path d="M48 7H65C66.1046 7 67 7.89543 67 9V19C67 20.1046 66.1046 21 65 21H48C46.8954 21 46 20.1046 46 19V9C46 7.89543 46.8954 7 48 7Z" fill="#FFE14C" stroke="#053B1F" stroke-width="2"/>
</svg>
