<svg width="89" height="50" viewBox="0 0 89 50" fill="none" xmlns="http://www.w3.org/2000/svg">
<path d="M26.6514 9C28.3677 9 29.7596 10.3911 29.7598 12.1074V35.7031C29.7598 36.2377 30.193 36.6718 30.7275 36.6719H84.332C86.0484 36.6719 87.4404 38.0629 87.4404 39.7793V40.7988C87.4402 42.515 86.0483 43.9062 84.332 43.9062H81.1094C81.1094 46.8607 78.7143 49.2559 75.7598 49.2559C72.8054 49.2557 70.4102 46.8607 70.4102 43.9062H22.5186C22.5186 46.8607 20.1234 49.2559 17.1689 49.2559C14.307 49.2556 11.9704 47.0081 11.8271 44.1816L11.8203 43.9062H3.10742C1.39128 43.9061 0.000253552 42.5149 0 40.7988V30.6279C0 30.1386 0.115211 29.656 0.336914 29.2197L9.75293 10.6992C10.283 9.65658 11.3538 9 12.5234 9H26.6514ZM14.2705 12.2803C13.4966 12.2804 12.7856 12.7085 12.4238 13.3926L5.1709 27.1172C4.43588 28.5082 5.44446 30.1813 7.01758 30.1816H22.8057C23.9592 30.1815 24.8945 29.2463 24.8945 28.0928V14.3691C24.8944 13.2157 23.9591 12.2804 22.8057 12.2803H14.2705Z" fill="#053B1F"/>
<path d="M39.0508 4H85.0508C86.1554 4 87.0508 4.89543 87.0508 6V31C87.0508 32.1046 86.1554 33 85.0508 33H39.0508C37.9462 33 37.0508 32.1046 37.0508 31V6C37.0508 4.89543 37.9462 4 39.0508 4Z" fill="#053B1F" stroke="#053B1F" stroke-width="2"/>
<path d="M36.0508 1H82.0508C83.1554 1 84.0508 1.89543 84.0508 3V28C84.0508 29.1046 83.1554 30 82.0508 30H36.0508C34.9462 30 34.0508 29.1046 34.0508 28V3C34.0508 1.89543 34.9462 1 36.0508 1Z" fill="url(#paint0_linear_9_835)" stroke="#053B1F" stroke-width="2"/>
<line x1="35.458" y1="7.5" x2="84.458" y2="7.5" stroke="#053B1F" stroke-dasharray="6 6"/>
<defs>
<linearGradient id="paint0_linear_9_835" x1="59" y1="-2.25194e-09" x2="59" y2="29" gradientUnits="userSpaceOnUse">
<stop stop-color="white"/>
<stop offset="0.25" stop-color="white"/>
<stop offset="0.26" stop-color="#FFE14C"/>
<stop offset="1" stop-color="#FFE14C"/>
</linearGradient>
</defs>
</svg>
