<svg width="4179" height="474" viewBox="0 0 4179 474" fill="none" xmlns="http://www.w3.org/2000/svg">
<path d="M200 100V300L100 400H0V300L100 200L0 100V0H100L200 100ZM450 100V150L400 200L450 250V300L350 400H250V300L300 250L250 200L300 150L250 100V0H350L450 100ZM700 300L600 400H500V300L600 200H700V300ZM700 100L600 200H500V100L600 0H700V100Z" fill="black"/>
<path d="M976.716 376.026C956.491 376.026 938.388 370.83 922.409 360.438C906.43 350.045 893.803 334.96 884.528 315.182C875.254 295.403 870.616 271.379 870.616 243.108C870.616 214.502 875.31 190.366 884.696 170.699C894.194 150.92 906.989 136.003 923.08 125.946C939.17 115.777 957.105 110.693 976.884 110.693C991.969 110.693 1004.37 113.263 1014.09 118.403C1023.82 123.432 1031.53 129.522 1037.22 136.673C1042.92 143.713 1047.34 150.362 1050.47 156.619H1052.98V28.2273H1113.82V371.5H1054.15V330.938H1050.47C1047.34 337.195 1042.81 343.844 1036.89 350.884C1030.97 357.812 1023.14 363.734 1013.42 368.651C1003.7 373.567 991.466 376.026 976.716 376.026ZM993.645 326.244C1006.5 326.244 1017.45 322.78 1026.5 315.852C1035.55 308.812 1042.42 299.035 1047.11 286.52C1051.81 274.005 1054.15 259.422 1054.15 242.773C1054.15 226.123 1051.81 211.652 1047.11 199.361C1042.53 187.069 1035.72 177.515 1026.66 170.699C1017.73 163.883 1006.72 160.474 993.645 160.474C980.124 160.474 968.838 163.994 959.787 171.034C950.736 178.074 943.92 187.795 939.338 200.199C934.757 212.602 932.466 226.794 932.466 242.773C932.466 258.864 934.757 273.223 939.338 285.849C944.031 298.365 950.903 308.254 959.955 315.517C969.117 322.669 980.348 326.244 993.645 326.244ZM1292.46 376.528C1266.65 376.528 1244.35 371.165 1225.58 360.438C1206.92 349.598 1192.56 334.29 1182.5 314.511C1172.45 294.621 1167.42 271.211 1167.42 244.281C1167.42 217.798 1172.45 194.556 1182.5 174.554C1192.67 154.44 1206.86 138.796 1225.08 127.622C1243.29 116.336 1264.69 110.693 1289.27 110.693C1305.14 110.693 1320.11 113.263 1334.19 118.403C1348.39 123.432 1360.9 131.254 1371.74 141.869C1382.69 152.485 1391.29 166.006 1397.55 182.432C1403.81 198.746 1406.94 218.189 1406.94 240.761V259.366H1195.91V218.469H1348.78C1348.66 206.848 1346.15 196.511 1341.23 187.46C1336.32 178.297 1329.44 171.09 1320.62 165.838C1311.9 160.586 1301.73 157.96 1290.11 157.96C1277.71 157.96 1266.81 160.977 1257.43 167.011C1248.04 172.934 1240.72 180.756 1235.47 190.477C1230.33 200.087 1227.7 210.647 1227.59 222.156V257.858C1227.59 272.831 1230.33 285.682 1235.8 296.409C1241.28 307.025 1248.93 315.182 1258.77 320.881C1268.6 326.468 1280.11 329.261 1293.3 329.261C1302.12 329.261 1310.11 328.032 1317.26 325.574C1324.42 323.004 1330.62 319.26 1335.87 314.344C1341.12 309.427 1345.09 303.337 1347.77 296.074L1404.42 302.443C1400.85 317.417 1394.03 330.491 1383.98 341.665C1374.03 352.727 1361.29 361.331 1345.76 367.477C1330.23 373.511 1312.46 376.528 1292.46 376.528ZM1661.75 182.097L1606.44 188.131C1604.88 182.544 1602.14 177.292 1598.23 172.375C1594.43 167.458 1589.29 163.491 1582.81 160.474C1576.33 157.457 1568.39 155.949 1559.01 155.949C1546.38 155.949 1535.76 158.687 1527.16 164.162C1518.67 169.637 1514.48 176.733 1514.59 185.449C1514.48 192.936 1517.21 199.026 1522.8 203.719C1528.5 208.412 1537.89 212.267 1550.96 215.284L1594.88 224.67C1619.23 229.922 1637.34 238.247 1649.18 249.645C1661.14 261.043 1667.17 275.96 1667.28 294.398C1667.17 310.6 1662.42 324.903 1653.04 337.307C1643.76 349.598 1630.86 359.208 1614.32 366.136C1597.78 373.064 1578.78 376.528 1557.33 376.528C1525.82 376.528 1500.45 369.936 1481.23 356.75C1462.01 343.453 1450.56 324.959 1446.87 301.27L1506.04 295.571C1508.72 307.192 1514.42 315.964 1523.14 321.886C1531.85 327.809 1543.19 330.77 1557.16 330.77C1571.58 330.77 1583.14 327.809 1591.86 321.886C1600.69 315.964 1605.1 308.645 1605.1 299.929C1605.1 292.554 1602.25 286.464 1596.55 281.659C1590.96 276.854 1582.25 273.167 1570.4 270.597L1526.49 261.378C1501.79 256.238 1483.52 247.578 1471.68 235.398C1459.83 223.106 1453.97 207.574 1454.08 188.801C1453.97 172.934 1458.27 159.189 1466.99 147.568C1475.81 135.835 1488.05 126.784 1503.69 120.415C1519.45 113.934 1537.61 110.693 1558.17 110.693C1588.34 110.693 1612.08 117.118 1629.4 129.969C1646.84 142.819 1657.62 160.195 1661.75 182.097ZM1717.32 371.5V114.045H1777.99V371.5H1717.32ZM1747.82 77.5057C1738.21 77.5057 1729.94 74.321 1723.02 67.9517C1716.09 61.4706 1712.62 53.7045 1712.62 44.6534C1712.62 35.4905 1716.09 27.7244 1723.02 21.3551C1729.94 14.874 1738.21 11.6335 1747.82 11.6335C1757.54 11.6335 1765.81 14.874 1772.63 21.3551C1779.56 27.7244 1783.02 35.4905 1783.02 44.6534C1783.02 53.7045 1779.56 61.4706 1772.63 67.9517C1765.81 74.321 1757.54 77.5057 1747.82 77.5057ZM1952.35 473.409C1930.56 473.409 1911.85 470.448 1896.2 464.526C1880.56 458.715 1867.99 450.893 1858.49 441.06C1848.99 431.226 1842.4 420.331 1838.71 408.375L1893.35 395.134C1895.81 400.162 1899.39 405.134 1904.08 410.051C1908.77 415.08 1915.09 419.214 1923.02 422.455C1931.07 425.807 1941.18 427.483 1953.36 427.483C1970.57 427.483 1984.81 423.293 1996.1 414.912C2007.39 406.643 2013.03 393.01 2013.03 374.014V325.239H2010.01C2006.88 331.496 2002.3 337.921 1996.27 344.514C1990.35 351.107 1982.47 356.638 1972.63 361.108C1962.91 365.578 1950.68 367.812 1935.93 367.812C1916.15 367.812 1898.21 363.175 1882.12 353.901C1866.14 344.514 1853.41 330.546 1843.91 311.997C1834.52 293.336 1829.83 269.982 1829.83 241.935C1829.83 213.664 1834.52 189.807 1843.91 170.364C1853.41 150.809 1866.2 136.003 1882.29 125.946C1898.38 115.777 1916.32 110.693 1936.09 110.693C1951.18 110.693 1963.58 113.263 1973.3 118.403C1983.14 123.432 1990.96 129.522 1996.77 136.673C2002.58 143.713 2007 150.362 2010.01 156.619H2013.36V114.045H2073.2V375.69C2073.2 397.704 2067.95 415.918 2057.45 430.332C2046.94 444.747 2032.58 455.53 2014.37 462.682C1996.16 469.833 1975.48 473.409 1952.35 473.409ZM1952.86 320.21C1965.71 320.21 1976.66 317.081 1985.71 310.824C1994.76 304.566 2001.63 295.571 2006.32 283.838C2011.02 272.105 2013.36 258.026 2013.36 241.599C2013.36 225.397 2011.02 211.205 2006.32 199.026C2001.74 186.846 1994.93 177.403 1985.88 170.699C1976.94 163.883 1965.93 160.474 1952.86 160.474C1939.33 160.474 1928.05 163.994 1919 171.034C1909.95 178.074 1903.13 187.74 1898.55 200.031C1893.97 212.211 1891.68 226.067 1891.68 241.599C1891.68 257.355 1893.97 271.155 1898.55 283C1903.24 294.733 1910.11 303.896 1919.17 310.489C1928.33 316.97 1939.56 320.21 1952.86 320.21ZM2196.06 220.648V371.5H2135.39V114.045H2193.38V157.793H2196.4C2202.32 143.378 2211.76 131.924 2224.73 123.432C2237.8 114.939 2253.95 110.693 2273.17 110.693C2290.93 110.693 2306.41 114.492 2319.59 122.091C2332.89 129.689 2343.17 140.696 2350.44 155.111C2357.81 169.526 2361.44 187.013 2361.33 207.574V371.5H2300.65V216.96C2300.65 199.752 2296.18 186.287 2287.25 176.565C2278.42 166.844 2266.18 161.983 2250.54 161.983C2239.92 161.983 2230.48 164.33 2222.21 169.023C2214.05 173.604 2207.63 180.253 2202.94 188.969C2198.35 197.685 2196.06 208.244 2196.06 220.648ZM2743.57 182.097L2688.26 188.131C2686.7 182.544 2683.96 177.292 2680.05 172.375C2676.25 167.458 2671.11 163.491 2664.63 160.474C2658.15 157.457 2650.21 155.949 2640.83 155.949C2628.2 155.949 2617.58 158.687 2608.98 164.162C2600.49 169.637 2596.3 176.733 2596.41 185.449C2596.3 192.936 2599.03 199.026 2604.62 203.719C2610.32 208.412 2619.71 212.267 2632.78 215.284L2676.7 224.67C2701.06 229.922 2719.16 238.247 2731 249.645C2742.96 261.043 2748.99 275.96 2749.1 294.398C2748.99 310.6 2744.24 324.903 2734.86 337.307C2725.58 349.598 2712.68 359.208 2696.14 366.136C2679.6 373.064 2660.6 376.528 2639.15 376.528C2607.64 376.528 2582.27 369.936 2563.05 356.75C2543.83 343.453 2532.38 324.959 2528.69 301.27L2587.86 295.571C2590.54 307.192 2596.24 315.964 2604.96 321.886C2613.67 327.809 2625.01 330.77 2638.98 330.77C2653.4 330.77 2664.96 327.809 2673.68 321.886C2682.51 315.964 2686.92 308.645 2686.92 299.929C2686.92 292.554 2684.07 286.464 2678.37 281.659C2672.78 276.854 2664.07 273.167 2652.22 270.597L2608.31 261.378C2583.61 256.238 2565.34 247.578 2553.5 235.398C2541.65 223.106 2535.79 207.574 2535.9 188.801C2535.79 172.934 2540.09 159.189 2548.81 147.568C2557.63 135.835 2569.87 126.784 2585.51 120.415C2601.27 113.934 2619.43 110.693 2639.99 110.693C2670.16 110.693 2693.9 117.118 2711.22 129.969C2728.66 142.819 2739.44 160.195 2743.57 182.097ZM2836.85 468.045C2828.58 468.045 2820.93 467.375 2813.89 466.034C2806.96 464.805 2801.43 463.352 2797.29 461.676L2811.37 414.409C2820.2 416.979 2828.08 418.208 2835.01 418.097C2841.93 417.985 2848.02 415.806 2853.28 411.56C2858.64 407.425 2863.17 400.497 2866.85 390.776L2872.05 376.864L2778.69 114.045H2843.05L2902.39 308.477H2905.07L2964.57 114.045H3029.1L2926.02 402.676C2921.22 416.309 2914.85 427.986 2906.91 437.707C2898.98 447.541 2889.26 455.027 2877.75 460.168C2866.35 465.42 2852.72 468.045 2836.85 468.045ZM3274.57 182.097L3219.26 188.131C3217.7 182.544 3214.96 177.292 3211.05 172.375C3207.25 167.458 3202.11 163.491 3195.63 160.474C3189.15 157.457 3181.21 155.949 3171.83 155.949C3159.2 155.949 3148.58 158.687 3139.98 164.162C3131.49 169.637 3127.3 176.733 3127.41 185.449C3127.3 192.936 3130.03 199.026 3135.62 203.719C3141.32 208.412 3150.71 212.267 3163.78 215.284L3207.7 224.67C3232.06 229.922 3250.16 238.247 3262 249.645C3273.96 261.043 3279.99 275.96 3280.1 294.398C3279.99 310.6 3275.24 324.903 3265.86 337.307C3256.58 349.598 3243.68 359.208 3227.14 366.136C3210.6 373.064 3191.6 376.528 3170.15 376.528C3138.64 376.528 3113.27 369.936 3094.05 356.75C3074.83 343.453 3063.38 324.959 3059.69 301.27L3118.86 295.571C3121.54 307.192 3127.24 315.964 3135.96 321.886C3144.67 327.809 3156.01 330.77 3169.98 330.77C3184.4 330.77 3195.96 327.809 3204.68 321.886C3213.51 315.964 3217.92 308.645 3217.92 299.929C3217.92 292.554 3215.07 286.464 3209.37 281.659C3203.78 276.854 3195.07 273.167 3183.22 270.597L3139.31 261.378C3114.61 256.238 3096.34 247.578 3084.5 235.398C3072.65 223.106 3066.79 207.574 3066.9 188.801C3066.79 172.934 3071.09 159.189 3079.81 147.568C3088.63 135.835 3100.87 126.784 3116.51 120.415C3132.27 113.934 3150.43 110.693 3170.99 110.693C3201.16 110.693 3224.9 117.118 3242.22 129.969C3259.66 142.819 3270.44 160.195 3274.57 182.097ZM3458.7 114.045V160.977H3310.69V114.045H3458.7ZM3347.23 52.3636H3407.91V294.062C3407.91 302.22 3409.14 308.477 3411.6 312.835C3414.17 317.081 3417.52 319.987 3421.65 321.551C3425.79 323.116 3430.37 323.898 3435.4 323.898C3439.2 323.898 3442.66 323.618 3445.79 323.06C3449.03 322.501 3451.49 321.998 3453.17 321.551L3463.39 368.986C3460.15 370.103 3455.51 371.332 3449.48 372.673C3443.56 374.014 3436.29 374.796 3427.69 375.02C3412.49 375.467 3398.8 373.176 3386.62 368.148C3374.44 363.008 3364.78 355.074 3357.63 344.347C3350.59 333.619 3347.12 320.21 3347.23 304.119V52.3636ZM3620.65 376.528C3594.84 376.528 3572.55 371.165 3553.78 360.438C3535.11 349.598 3520.76 334.29 3510.7 314.511C3500.64 294.621 3495.61 271.211 3495.61 244.281C3495.61 217.798 3500.64 194.556 3510.7 174.554C3520.87 154.44 3535.06 138.796 3553.27 127.622C3571.49 116.336 3592.89 110.693 3617.47 110.693C3633.34 110.693 3648.31 113.263 3662.39 118.403C3676.58 123.432 3689.1 131.254 3699.93 141.869C3710.89 152.485 3719.49 166.006 3725.75 182.432C3732 198.746 3735.13 218.189 3735.13 240.761V259.366H3524.11V218.469H3676.97C3676.86 206.848 3674.35 196.511 3669.43 187.46C3664.51 178.297 3657.64 171.09 3648.81 165.838C3640.1 160.586 3629.93 157.96 3618.31 157.96C3605.9 157.96 3595.01 160.977 3585.62 167.011C3576.24 172.934 3568.92 180.756 3563.66 190.477C3558.52 200.087 3555.9 210.647 3555.79 222.156V257.858C3555.79 272.831 3558.52 285.682 3564 296.409C3569.48 307.025 3577.13 315.182 3586.96 320.881C3596.8 326.468 3608.31 329.261 3621.49 329.261C3630.32 329.261 3638.31 328.032 3645.46 325.574C3652.61 323.004 3658.81 319.26 3664.07 314.344C3669.32 309.427 3673.28 303.337 3675.97 296.074L3732.62 302.443C3729.04 317.417 3722.23 330.491 3712.17 341.665C3702.23 352.727 3689.49 361.331 3673.95 367.477C3658.42 373.511 3640.66 376.528 3620.65 376.528ZM3786.47 371.5V114.045H3844.46V157.793H3847.48C3852.84 143.043 3861.72 131.533 3874.13 123.264C3886.53 114.884 3901.34 110.693 3918.54 110.693C3935.98 110.693 3950.67 114.939 3962.63 123.432C3974.7 131.812 3983.19 143.266 3988.1 157.793H3990.79C3996.49 143.49 4006.09 132.092 4019.62 123.599C4033.25 114.995 4049.4 110.693 4068.06 110.693C4091.75 110.693 4111.08 118.18 4126.05 133.153C4141.02 148.127 4148.51 169.973 4148.51 198.69V371.5H4087.67V208.077C4087.67 192.098 4083.42 180.42 4074.93 173.045C4066.44 165.559 4056.04 161.815 4043.75 161.815C4029.11 161.815 4017.66 166.397 4009.39 175.56C4001.23 184.611 3997.16 196.4 3997.16 210.926V371.5H3937.65V205.562C3937.65 192.265 3933.63 181.65 3925.58 173.716C3917.65 165.782 3907.26 161.815 3894.41 161.815C3885.69 161.815 3877.76 164.05 3870.61 168.52C3863.46 172.878 3857.76 179.08 3853.51 187.125C3849.26 195.059 3847.14 204.333 3847.14 214.949V371.5H3786.47Z" fill="black"/>
</svg>
