<svg width="249" height="53" viewBox="0 0 249 53" fill="none" xmlns="http://www.w3.org/2000/svg">
<mask id="path-1-outside-1_10_888" maskUnits="userSpaceOnUse" x="131" y="10" width="118" height="31" fill="black">
<rect fill="white" x="131" y="10" width="118" height="31"/>
<path d="M132 18.56H136.326L141.786 37.292H140.652L146.364 18.56H150.858L156.528 37.292H155.394L160.896 18.56H165.138L158.208 39.56H153.504L148.254 22.424H148.884L143.466 39.56H138.762L132 18.56Z"/>
<path d="M175.135 40.064C173.063 40.064 171.369 39.49 170.053 38.342C168.765 37.194 168.121 35.64 168.121 33.68C168.121 31.552 168.807 29.956 170.179 28.892C171.579 27.828 173.539 27.268 176.059 27.212L182.233 27.128V26.498C182.233 24.818 181.813 23.558 180.973 22.718C180.133 21.878 178.943 21.458 177.403 21.458C175.863 21.458 174.673 21.808 173.833 22.508C173.021 23.18 172.559 23.964 172.447 24.86H168.289C168.429 23.712 168.863 22.62 169.591 21.584C170.347 20.52 171.397 19.666 172.741 19.022C174.085 18.378 175.653 18.056 177.445 18.056C179.377 18.056 180.987 18.434 182.275 19.19C183.563 19.918 184.515 20.912 185.131 22.172C185.747 23.432 186.055 24.874 186.055 26.498V34.688C186.083 35.696 186.153 36.606 186.265 37.418C186.377 38.23 186.559 38.944 186.811 39.56H182.863L182.821 39.308C182.653 38.356 182.527 37.46 182.443 36.62C182.359 35.78 182.345 34.772 182.401 33.596L182.863 35.066C182.303 36.578 181.365 37.796 180.049 38.72C178.733 39.616 177.095 40.064 175.135 40.064ZM176.101 36.704C177.529 36.704 178.775 36.368 179.839 35.696C180.903 34.996 181.701 34.03 182.233 32.798V30.488L176.101 30.572C174.841 30.6 173.861 30.852 173.161 31.328C172.461 31.776 172.111 32.504 172.111 33.512C172.111 34.52 172.475 35.304 173.203 35.864C173.959 36.424 174.925 36.704 176.101 36.704Z"/>
<path d="M200.193 40.064C198.457 40.064 196.917 39.77 195.573 39.182C194.257 38.594 193.207 37.796 192.423 36.788C191.639 35.752 191.177 34.576 191.037 33.26H195.069C195.209 34.352 195.755 35.192 196.707 35.78C197.659 36.34 198.849 36.62 200.277 36.62C201.649 36.62 202.699 36.354 203.427 35.822C204.183 35.29 204.561 34.59 204.561 33.722C204.561 33.106 204.323 32.588 203.847 32.168C203.371 31.748 202.531 31.398 201.327 31.118L197.757 30.32C195.825 29.872 194.355 29.144 193.347 28.136C192.367 27.128 191.877 25.896 191.877 24.44C191.877 23.208 192.213 22.116 192.885 21.164C193.585 20.184 194.537 19.428 195.741 18.896C196.973 18.336 198.373 18.056 199.941 18.056C202.293 18.056 204.183 18.644 205.611 19.82C207.067 20.996 207.949 22.55 208.257 24.482H204.225C204.113 23.586 203.665 22.844 202.881 22.256C202.125 21.668 201.089 21.374 199.773 21.374C198.513 21.374 197.533 21.64 196.833 22.172C196.161 22.676 195.825 23.334 195.825 24.146C195.825 24.818 196.063 25.364 196.539 25.784C197.015 26.176 197.841 26.484 199.017 26.708L202.629 27.422C204.561 27.814 206.017 28.542 206.997 29.606C207.977 30.67 208.467 31.958 208.467 33.47C208.467 35.402 207.711 36.984 206.199 38.216C204.715 39.448 202.713 40.064 200.193 40.064Z"/>
<path d="M221.279 39.56C219.347 39.56 217.891 39.168 216.911 38.384C215.959 37.572 215.483 36.326 215.483 34.646V13.688L219.515 11V33.764C219.515 34.576 219.697 35.164 220.061 35.528C220.453 35.892 221.167 36.074 222.203 36.074H225.437V39.56H221.279ZM211.367 18.56H224.261V21.92H211.367V18.56Z"/>
<path d="M238.493 40.064C236.477 40.064 234.699 39.616 233.159 38.72C231.619 37.796 230.429 36.508 229.589 34.856C228.749 33.176 228.329 31.258 228.329 29.102C228.329 26.946 228.749 25.028 229.589 23.348C230.429 21.668 231.591 20.366 233.075 19.442C234.587 18.518 236.323 18.056 238.283 18.056C240.131 18.056 241.755 18.476 243.155 19.316C244.583 20.156 245.689 21.36 246.473 22.928C247.257 24.468 247.649 26.274 247.649 28.346C247.649 28.43 247.649 28.57 247.649 28.766C247.649 28.934 247.635 29.144 247.607 29.396H230.849V26.036H245.255L243.365 27.716C243.365 27.548 243.365 27.38 243.365 27.212C243.365 27.044 243.365 26.876 243.365 26.708C243.365 25.084 242.889 23.796 241.937 22.844C241.013 21.892 239.795 21.416 238.283 21.416C237.275 21.416 236.351 21.64 235.511 22.088C234.699 22.536 234.027 23.166 233.495 23.978C232.991 24.79 232.711 25.7 232.655 26.708C232.627 26.876 232.599 27.058 232.571 27.254C232.543 27.422 232.515 27.604 232.487 27.8C232.459 27.996 232.431 28.178 232.403 28.346C232.375 28.514 232.347 28.696 232.319 28.892C232.319 31.3 232.879 33.19 233.999 34.562C235.119 35.906 236.631 36.578 238.535 36.578C239.795 36.578 240.845 36.284 241.685 35.696C242.553 35.108 243.155 34.296 243.491 33.26H247.481C247.061 35.248 246.067 36.886 244.499 38.174C242.931 39.434 240.929 40.064 238.493 40.064Z"/>
</mask>
<path d="M132 18.56H136.326L141.786 37.292H140.652L146.364 18.56H150.858L156.528 37.292H155.394L160.896 18.56H165.138L158.208 39.56H153.504L148.254 22.424H148.884L143.466 39.56H138.762L132 18.56Z" fill="#053B1F"/>
<path d="M175.135 40.064C173.063 40.064 171.369 39.49 170.053 38.342C168.765 37.194 168.121 35.64 168.121 33.68C168.121 31.552 168.807 29.956 170.179 28.892C171.579 27.828 173.539 27.268 176.059 27.212L182.233 27.128V26.498C182.233 24.818 181.813 23.558 180.973 22.718C180.133 21.878 178.943 21.458 177.403 21.458C175.863 21.458 174.673 21.808 173.833 22.508C173.021 23.18 172.559 23.964 172.447 24.86H168.289C168.429 23.712 168.863 22.62 169.591 21.584C170.347 20.52 171.397 19.666 172.741 19.022C174.085 18.378 175.653 18.056 177.445 18.056C179.377 18.056 180.987 18.434 182.275 19.19C183.563 19.918 184.515 20.912 185.131 22.172C185.747 23.432 186.055 24.874 186.055 26.498V34.688C186.083 35.696 186.153 36.606 186.265 37.418C186.377 38.23 186.559 38.944 186.811 39.56H182.863L182.821 39.308C182.653 38.356 182.527 37.46 182.443 36.62C182.359 35.78 182.345 34.772 182.401 33.596L182.863 35.066C182.303 36.578 181.365 37.796 180.049 38.72C178.733 39.616 177.095 40.064 175.135 40.064ZM176.101 36.704C177.529 36.704 178.775 36.368 179.839 35.696C180.903 34.996 181.701 34.03 182.233 32.798V30.488L176.101 30.572C174.841 30.6 173.861 30.852 173.161 31.328C172.461 31.776 172.111 32.504 172.111 33.512C172.111 34.52 172.475 35.304 173.203 35.864C173.959 36.424 174.925 36.704 176.101 36.704Z" fill="#053B1F"/>
<path d="M200.193 40.064C198.457 40.064 196.917 39.77 195.573 39.182C194.257 38.594 193.207 37.796 192.423 36.788C191.639 35.752 191.177 34.576 191.037 33.26H195.069C195.209 34.352 195.755 35.192 196.707 35.78C197.659 36.34 198.849 36.62 200.277 36.62C201.649 36.62 202.699 36.354 203.427 35.822C204.183 35.29 204.561 34.59 204.561 33.722C204.561 33.106 204.323 32.588 203.847 32.168C203.371 31.748 202.531 31.398 201.327 31.118L197.757 30.32C195.825 29.872 194.355 29.144 193.347 28.136C192.367 27.128 191.877 25.896 191.877 24.44C191.877 23.208 192.213 22.116 192.885 21.164C193.585 20.184 194.537 19.428 195.741 18.896C196.973 18.336 198.373 18.056 199.941 18.056C202.293 18.056 204.183 18.644 205.611 19.82C207.067 20.996 207.949 22.55 208.257 24.482H204.225C204.113 23.586 203.665 22.844 202.881 22.256C202.125 21.668 201.089 21.374 199.773 21.374C198.513 21.374 197.533 21.64 196.833 22.172C196.161 22.676 195.825 23.334 195.825 24.146C195.825 24.818 196.063 25.364 196.539 25.784C197.015 26.176 197.841 26.484 199.017 26.708L202.629 27.422C204.561 27.814 206.017 28.542 206.997 29.606C207.977 30.67 208.467 31.958 208.467 33.47C208.467 35.402 207.711 36.984 206.199 38.216C204.715 39.448 202.713 40.064 200.193 40.064Z" fill="#053B1F"/>
<path d="M221.279 39.56C219.347 39.56 217.891 39.168 216.911 38.384C215.959 37.572 215.483 36.326 215.483 34.646V13.688L219.515 11V33.764C219.515 34.576 219.697 35.164 220.061 35.528C220.453 35.892 221.167 36.074 222.203 36.074H225.437V39.56H221.279ZM211.367 18.56H224.261V21.92H211.367V18.56Z" fill="#053B1F"/>
<path d="M238.493 40.064C236.477 40.064 234.699 39.616 233.159 38.72C231.619 37.796 230.429 36.508 229.589 34.856C228.749 33.176 228.329 31.258 228.329 29.102C228.329 26.946 228.749 25.028 229.589 23.348C230.429 21.668 231.591 20.366 233.075 19.442C234.587 18.518 236.323 18.056 238.283 18.056C240.131 18.056 241.755 18.476 243.155 19.316C244.583 20.156 245.689 21.36 246.473 22.928C247.257 24.468 247.649 26.274 247.649 28.346C247.649 28.43 247.649 28.57 247.649 28.766C247.649 28.934 247.635 29.144 247.607 29.396H230.849V26.036H245.255L243.365 27.716C243.365 27.548 243.365 27.38 243.365 27.212C243.365 27.044 243.365 26.876 243.365 26.708C243.365 25.084 242.889 23.796 241.937 22.844C241.013 21.892 239.795 21.416 238.283 21.416C237.275 21.416 236.351 21.64 235.511 22.088C234.699 22.536 234.027 23.166 233.495 23.978C232.991 24.79 232.711 25.7 232.655 26.708C232.627 26.876 232.599 27.058 232.571 27.254C232.543 27.422 232.515 27.604 232.487 27.8C232.459 27.996 232.431 28.178 232.403 28.346C232.375 28.514 232.347 28.696 232.319 28.892C232.319 31.3 232.879 33.19 233.999 34.562C235.119 35.906 236.631 36.578 238.535 36.578C239.795 36.578 240.845 36.284 241.685 35.696C242.553 35.108 243.155 34.296 243.491 33.26H247.481C247.061 35.248 246.067 36.886 244.499 38.174C242.931 39.434 240.929 40.064 238.493 40.064Z" fill="#053B1F"/>
<path d="M132 18.56H136.326L141.786 37.292H140.652L146.364 18.56H150.858L156.528 37.292H155.394L160.896 18.56H165.138L158.208 39.56H153.504L148.254 22.424H148.884L143.466 39.56H138.762L132 18.56Z" stroke="#053B1F" stroke-linejoin="round" mask="url(#path-1-outside-1_10_888)"/>
<path d="M175.135 40.064C173.063 40.064 171.369 39.49 170.053 38.342C168.765 37.194 168.121 35.64 168.121 33.68C168.121 31.552 168.807 29.956 170.179 28.892C171.579 27.828 173.539 27.268 176.059 27.212L182.233 27.128V26.498C182.233 24.818 181.813 23.558 180.973 22.718C180.133 21.878 178.943 21.458 177.403 21.458C175.863 21.458 174.673 21.808 173.833 22.508C173.021 23.18 172.559 23.964 172.447 24.86H168.289C168.429 23.712 168.863 22.62 169.591 21.584C170.347 20.52 171.397 19.666 172.741 19.022C174.085 18.378 175.653 18.056 177.445 18.056C179.377 18.056 180.987 18.434 182.275 19.19C183.563 19.918 184.515 20.912 185.131 22.172C185.747 23.432 186.055 24.874 186.055 26.498V34.688C186.083 35.696 186.153 36.606 186.265 37.418C186.377 38.23 186.559 38.944 186.811 39.56H182.863L182.821 39.308C182.653 38.356 182.527 37.46 182.443 36.62C182.359 35.78 182.345 34.772 182.401 33.596L182.863 35.066C182.303 36.578 181.365 37.796 180.049 38.72C178.733 39.616 177.095 40.064 175.135 40.064ZM176.101 36.704C177.529 36.704 178.775 36.368 179.839 35.696C180.903 34.996 181.701 34.03 182.233 32.798V30.488L176.101 30.572C174.841 30.6 173.861 30.852 173.161 31.328C172.461 31.776 172.111 32.504 172.111 33.512C172.111 34.52 172.475 35.304 173.203 35.864C173.959 36.424 174.925 36.704 176.101 36.704Z" stroke="#053B1F" stroke-linejoin="round" mask="url(#path-1-outside-1_10_888)"/>
<path d="M200.193 40.064C198.457 40.064 196.917 39.77 195.573 39.182C194.257 38.594 193.207 37.796 192.423 36.788C191.639 35.752 191.177 34.576 191.037 33.26H195.069C195.209 34.352 195.755 35.192 196.707 35.78C197.659 36.34 198.849 36.62 200.277 36.62C201.649 36.62 202.699 36.354 203.427 35.822C204.183 35.29 204.561 34.59 204.561 33.722C204.561 33.106 204.323 32.588 203.847 32.168C203.371 31.748 202.531 31.398 201.327 31.118L197.757 30.32C195.825 29.872 194.355 29.144 193.347 28.136C192.367 27.128 191.877 25.896 191.877 24.44C191.877 23.208 192.213 22.116 192.885 21.164C193.585 20.184 194.537 19.428 195.741 18.896C196.973 18.336 198.373 18.056 199.941 18.056C202.293 18.056 204.183 18.644 205.611 19.82C207.067 20.996 207.949 22.55 208.257 24.482H204.225C204.113 23.586 203.665 22.844 202.881 22.256C202.125 21.668 201.089 21.374 199.773 21.374C198.513 21.374 197.533 21.64 196.833 22.172C196.161 22.676 195.825 23.334 195.825 24.146C195.825 24.818 196.063 25.364 196.539 25.784C197.015 26.176 197.841 26.484 199.017 26.708L202.629 27.422C204.561 27.814 206.017 28.542 206.997 29.606C207.977 30.67 208.467 31.958 208.467 33.47C208.467 35.402 207.711 36.984 206.199 38.216C204.715 39.448 202.713 40.064 200.193 40.064Z" stroke="#053B1F" stroke-linejoin="round" mask="url(#path-1-outside-1_10_888)"/>
<path d="M221.279 39.56C219.347 39.56 217.891 39.168 216.911 38.384C215.959 37.572 215.483 36.326 215.483 34.646V13.688L219.515 11V33.764C219.515 34.576 219.697 35.164 220.061 35.528C220.453 35.892 221.167 36.074 222.203 36.074H225.437V39.56H221.279ZM211.367 18.56H224.261V21.92H211.367V18.56Z" stroke="#053B1F" stroke-linejoin="round" mask="url(#path-1-outside-1_10_888)"/>
<path d="M238.493 40.064C236.477 40.064 234.699 39.616 233.159 38.72C231.619 37.796 230.429 36.508 229.589 34.856C228.749 33.176 228.329 31.258 228.329 29.102C228.329 26.946 228.749 25.028 229.589 23.348C230.429 21.668 231.591 20.366 233.075 19.442C234.587 18.518 236.323 18.056 238.283 18.056C240.131 18.056 241.755 18.476 243.155 19.316C244.583 20.156 245.689 21.36 246.473 22.928C247.257 24.468 247.649 26.274 247.649 28.346C247.649 28.43 247.649 28.57 247.649 28.766C247.649 28.934 247.635 29.144 247.607 29.396H230.849V26.036H245.255L243.365 27.716C243.365 27.548 243.365 27.38 243.365 27.212C243.365 27.044 243.365 26.876 243.365 26.708C243.365 25.084 242.889 23.796 241.937 22.844C241.013 21.892 239.795 21.416 238.283 21.416C237.275 21.416 236.351 21.64 235.511 22.088C234.699 22.536 234.027 23.166 233.495 23.978C232.991 24.79 232.711 25.7 232.655 26.708C232.627 26.876 232.599 27.058 232.571 27.254C232.543 27.422 232.515 27.604 232.487 27.8C232.459 27.996 232.431 28.178 232.403 28.346C232.375 28.514 232.347 28.696 232.319 28.892C232.319 31.3 232.879 33.19 233.999 34.562C235.119 35.906 236.631 36.578 238.535 36.578C239.795 36.578 240.845 36.284 241.685 35.696C242.553 35.108 243.155 34.296 243.491 33.26H247.481C247.061 35.248 246.067 36.886 244.499 38.174C242.931 39.434 240.929 40.064 238.493 40.064Z" stroke="#053B1F" stroke-linejoin="round" mask="url(#path-1-outside-1_10_888)"/>
<path d="M100 0C109.389 0 117 7.61116 117 17V36C117 45.3888 109.389 53 100 53H17C7.61116 53 0 45.3888 0 36V17C0 7.61116 7.61116 3.94608e-07 17 0H100ZM80.5596 15.2881C78.647 15.2881 76.9475 15.564 75.4883 16.1494L75.4824 16.1523C74.0476 16.7377 72.8897 17.5916 72.0645 18.7363L72.0566 18.748C71.2498 19.9023 70.8604 21.2451 70.8604 22.7334C70.8604 24.6281 71.5578 26.2028 72.9834 27.3379L72.9902 27.3438C74.3546 28.4105 76.3524 29.1552 78.8701 29.6523V29.6533L83.2832 30.5371C84.5663 30.801 85.3446 31.132 85.7529 31.4512C86.0786 31.7058 86.2577 32.0439 86.2578 32.5898C86.2578 33.4644 85.9083 34.0761 85.1113 34.5342C84.2275 35.0332 83.0269 35.3184 81.4482 35.3184C79.7831 35.3183 78.278 34.998 76.9189 34.3701H76.9199C75.5284 33.7173 74.1747 32.8319 72.8604 31.7051C72.651 31.5256 72.3767 31.4403 72.1025 31.4697C71.8629 31.4956 71.6415 31.6068 71.4785 31.7812L71.4121 31.8604L69.4756 34.4199C69.1643 34.8315 69.217 35.4124 69.5977 35.7607C70.4341 36.5256 71.407 37.2474 72.5098 37.9277C72.5162 37.9317 72.5228 37.9356 72.5293 37.9395C73.6893 38.6185 75.0147 39.1752 76.4961 39.6152L76.5 39.6162C78.039 40.0666 79.6798 40.288 81.416 40.2881C83.3507 40.2881 85.0944 40.0112 86.627 39.4336L86.6387 39.4297C88.1856 38.8233 89.4315 37.9145 90.3223 36.6836C91.2238 35.4376 91.6553 33.9611 91.6553 32.3057C91.6552 30.5174 91.0893 29.0028 89.8955 27.875L89.6484 27.6553C88.385 26.5738 86.5777 25.853 84.3379 25.416H84.3359L80.082 24.5947L80.0771 24.5938C78.5694 24.3098 77.5404 23.9517 76.9102 23.5664C76.408 23.2295 76.2256 22.8569 76.2256 22.3857C76.2256 21.7726 76.4626 21.3225 77.0381 20.9502C77.0427 20.9472 77.0481 20.9445 77.0527 20.9414C77.6565 20.5359 78.7001 20.2578 80.3369 20.2578C81.7352 20.2578 83.0296 20.4729 84.2266 20.8955C84.2325 20.8976 84.2391 20.9003 84.2451 20.9023C85.5029 21.3196 86.8382 21.9311 88.251 22.7461C88.4935 22.886 88.7837 22.918 89.0508 22.834C89.3179 22.7498 89.5376 22.5574 89.6562 22.3037L90.9258 19.5869C91.1479 19.1116 90.9652 18.5455 90.5068 18.29C88.8807 17.3839 87.2964 16.6648 85.7549 16.1377L85.7559 16.1367C84.1723 15.5658 82.4363 15.2881 80.5596 15.2881ZM23.6553 15.7305C23.1031 15.7306 22.6553 16.1783 22.6553 16.7305V38.8457C22.6553 39.3979 23.1031 39.8456 23.6553 39.8457H31.9736C34.1862 39.8457 36.1992 39.3954 37.9883 38.4707L37.998 38.4658C39.8035 37.5091 41.2213 36.1048 42.2432 34.2793L42.2461 34.2744C43.2757 32.4115 43.7676 30.2149 43.7676 27.7246C43.7675 25.26 43.2878 23.0958 42.2793 21.2734H42.2803C41.2837 19.4516 39.9093 18.0536 38.1611 17.1133C36.4555 16.1846 34.5432 15.7305 32.4492 15.7305H23.6553ZM47.8076 15.7305C47.2555 15.7307 46.8076 16.1783 46.8076 16.7305V38.8457C46.8077 39.3978 47.2555 39.8455 47.8076 39.8457H58.4434C60.2846 39.8457 61.8943 39.593 63.2354 39.0449C63.2398 39.0431 63.2446 39.041 63.249 39.0391C64.5866 38.4686 65.6477 37.6333 66.3662 36.5098C67.078 35.3967 67.4121 34.0963 67.4121 32.6533C67.4121 31.5796 67.197 30.5803 66.748 29.6748H66.749C66.3064 28.7163 65.6168 27.9349 64.7109 27.334H64.71C64.6526 27.2946 64.593 27.2582 64.5342 27.2207C65.1993 26.7257 65.7207 26.0953 66.0928 25.3398L66.0938 25.3408C66.0972 25.3342 66.1001 25.327 66.1035 25.3203L66.1045 25.3193L66.1035 25.3184C66.5414 24.4628 66.746 23.4974 66.7461 22.4492C66.7461 21.1162 66.4451 19.9065 65.8047 18.8613C65.1589 17.8075 64.2116 17.0298 63.0166 16.5156H63.0176C61.8346 15.9761 60.4232 15.7305 58.8242 15.7305H47.8076ZM85.1885 35.6172C85.1625 35.6292 85.1357 35.6397 85.1094 35.6514C85.1404 35.6376 85.1716 35.6246 85.2021 35.6104L85.1885 35.6172ZM70.2734 35.0225C70.4691 35.2014 70.6729 35.3787 70.8857 35.5537C70.6729 35.3788 70.4681 35.2023 70.2725 35.0234L70.2734 35.0225ZM58.6025 29.9883C59.949 29.9883 60.8063 30.2635 61.3232 30.6631V30.6641L61.334 30.6719C61.8239 31.0408 62.1103 31.5835 62.1104 32.4639C62.1103 33.3396 61.81 33.921 61.2461 34.3438C60.615 34.7957 59.7401 35.0654 58.5391 35.0654H52.0459V29.9883H58.6025ZM32.1006 20.5742C33.4071 20.5742 34.5064 20.8642 35.4316 21.4131C36.3487 21.9571 37.065 22.7492 37.5791 23.8271L37.585 23.8398C38.1167 24.9166 38.4023 26.2323 38.4023 27.8193C38.4023 29.5054 38.077 30.84 37.4863 31.873L37.4844 31.8779C36.9037 32.9071 36.1094 33.6579 35.0898 34.1562C34.0431 34.6678 32.8012 34.9394 31.3389 34.9395H27.8936V20.5742H32.1006ZM87.2451 32.3057C87.2534 32.3979 87.2588 32.4926 87.2588 32.5898L87.252 32.8193C87.2563 32.744 87.2578 32.6675 87.2578 32.5898C87.2578 32.4926 87.2534 32.3979 87.2451 32.3057ZM87.2275 32.1465C87.2231 32.1162 87.2164 32.0864 87.2109 32.0566C87.2164 32.0864 87.2231 32.1161 87.2275 32.1465ZM87.1719 31.8779C87.1809 31.913 87.1887 31.9485 87.1963 31.9844C87.1887 31.9485 87.1809 31.9129 87.1719 31.8779ZM61.9365 29.873C61.9502 29.8834 61.9631 29.8948 61.9766 29.9053C61.9629 29.8946 61.9494 29.8835 61.9355 29.873L61.7891 29.7656C61.8395 29.8002 61.8888 29.8361 61.9365 29.873ZM63.9365 28.0225L64.1582 28.167C64.0715 28.1071 63.982 28.0504 63.8906 27.9951C63.9059 28.0043 63.9214 28.0131 63.9365 28.0225ZM39.3887 27.1904L39.3896 27.2754C39.3846 27.1491 39.3797 27.024 39.3711 26.9004C39.3778 26.9963 39.3841 27.0929 39.3887 27.1904ZM61.1846 25.334C61.1673 25.3451 61.1494 25.3553 61.1318 25.3662C61.1524 25.3535 61.1732 25.3413 61.1934 25.3281L61.1846 25.334ZM58.3799 20.5107C59.5424 20.5107 60.305 20.7583 60.79 21.127V21.1279L60.8018 21.1357C61.26 21.4745 61.5068 21.9404 61.5068 22.6699C61.5068 23.5075 61.2476 24.0168 60.8281 24.3584C60.3687 24.7324 59.6393 24.9873 58.5068 24.9873H52.0459V20.5107H58.3799ZM77.0293 24.7529C76.9241 24.706 76.8242 24.6565 76.7285 24.6064L77.0293 24.7529ZM38.4824 23.3965C38.5591 23.5517 38.6311 23.7106 38.6982 23.873H38.6973C38.6637 23.7917 38.6288 23.7114 38.5928 23.6318C38.5569 23.5525 38.5197 23.474 38.4814 23.3965C38.4444 23.3188 38.4062 23.2424 38.3672 23.167C38.4063 23.2425 38.4453 23.3187 38.4824 23.3965ZM65.7461 22.4492L65.7373 22.791C65.732 22.8978 65.7233 23.0029 65.7129 23.1064C65.7343 22.8941 65.7451 22.6744 65.7451 22.4482L65.7461 22.4492ZM62.4912 22.333C62.501 22.4423 62.5078 22.5545 62.5078 22.6699H62.5068C62.5068 22.5546 62.5009 22.4423 62.4912 22.333ZM62.4707 22.1553C62.4765 22.1962 62.4819 22.2375 62.4863 22.2793C62.482 22.2375 62.4764 22.1962 62.4707 22.1553ZM62.4404 21.9717C62.4469 22.0035 62.4515 22.0359 62.457 22.0684C62.4516 22.0359 62.4468 22.0036 62.4404 21.9717ZM77.2119 19.7383L77.0176 19.8213C77.0807 19.7924 77.1454 19.764 77.2119 19.7373L77.416 19.6611C77.3462 19.6856 77.2783 19.7116 77.2119 19.7383ZM32.1006 19.5732C32.2831 19.5732 32.4628 19.5787 32.6396 19.5889V19.5898C32.4628 19.5796 32.2831 19.5742 32.1006 19.5742H26.8936V19.5732H32.1006Z" fill="#FFE14C"/>
</svg>
