<svg width="2252" height="400" viewBox="0 0 2252 400" fill="none" xmlns="http://www.w3.org/2000/svg">
<path d="M200 100V300L100 400H0V300L100 200L0 100V0H100L200 100ZM450 100V150L400 200L450 250V300L350 400H250V300L300 250L250 200L300 150L250 100V0H350L450 100ZM700 300L600 400H500V300L600 200H700V300ZM700 100L600 200H500V100L600 0H700V100Z" fill="black"/>
<mask id="path-2-outside-1_15_344" maskUnits="userSpaceOnUse" x="849" y="23" width="1403" height="354" fill="black">
<rect fill="white" x="849" y="23" width="1403" height="354"/>
<path d="M850 115.561H902.406L968.55 342.428H954.812L1024.01 115.561H1078.45L1147.14 342.428H1133.4L1200.05 115.561H1251.44L1167.49 369.896H1110.5L1046.9 162.358H1054.54L988.902 369.896H931.916L850 115.561Z"/>
<path d="M1372.55 376C1347.45 376 1326.93 369.048 1310.99 355.145C1295.38 341.241 1287.58 322.42 1287.58 298.682C1287.58 272.909 1295.89 253.58 1312.51 240.694C1329.47 227.807 1353.22 221.025 1383.74 220.347L1458.54 219.329V211.699C1458.54 191.353 1453.45 176.092 1443.27 165.919C1433.1 155.746 1418.68 150.659 1400.03 150.659C1381.37 150.659 1366.95 154.898 1356.78 163.376C1346.94 171.514 1341.34 181.01 1339.99 191.861H1289.62C1291.31 177.958 1296.57 164.732 1305.39 152.185C1314.55 139.299 1327.27 128.956 1343.55 121.156C1359.83 113.356 1378.83 109.457 1400.53 109.457C1423.94 109.457 1443.44 114.035 1459.05 123.191C1474.65 132.008 1486.18 144.046 1493.64 159.306C1501.11 174.566 1504.84 192.031 1504.84 211.699V310.89C1505.18 323.098 1506.02 334.119 1507.38 343.954C1508.74 353.788 1510.94 362.435 1514 369.896H1466.17L1465.66 366.844C1463.62 355.314 1462.1 344.462 1461.08 334.289C1460.06 324.116 1459.89 311.908 1460.57 297.665L1466.17 315.468C1459.38 333.78 1448.02 348.532 1432.08 359.723C1416.14 370.574 1396.29 376 1372.55 376ZM1384.25 335.306C1401.55 335.306 1416.65 331.237 1429.54 323.098C1442.42 314.62 1452.09 302.921 1458.54 288V260.023L1384.25 261.04C1368.99 261.38 1357.12 264.432 1348.64 270.197C1340.16 275.622 1335.92 284.439 1335.92 296.647C1335.92 308.855 1340.33 318.351 1349.15 325.133C1358.3 331.915 1370.01 335.306 1384.25 335.306Z"/>
<path d="M1676.11 376C1655.08 376 1636.42 372.439 1620.14 365.318C1604.2 358.197 1591.48 348.532 1581.98 336.324C1572.48 323.776 1566.89 309.534 1565.19 293.595H1614.03C1615.73 306.821 1622.34 316.994 1633.88 324.116C1645.41 330.898 1659.83 334.289 1677.12 334.289C1693.75 334.289 1706.47 331.067 1715.28 324.624C1724.44 318.181 1729.02 309.703 1729.02 299.191C1729.02 291.73 1726.14 285.457 1720.37 280.37C1714.61 275.283 1704.43 271.044 1689.84 267.653L1646.6 257.988C1623.19 252.563 1605.38 243.746 1593.17 231.538C1581.3 219.329 1575.37 204.408 1575.37 186.775C1575.37 171.854 1579.44 158.628 1587.58 147.098C1596.06 135.229 1607.59 126.073 1622.17 119.63C1637.1 112.848 1654.06 109.457 1673.05 109.457C1701.55 109.457 1724.44 116.578 1741.74 130.821C1759.38 145.064 1770.06 163.884 1773.8 187.283H1724.95C1723.59 176.432 1718.17 167.445 1708.67 160.324C1699.51 153.202 1686.96 149.642 1671.02 149.642C1655.76 149.642 1643.88 152.863 1635.4 159.306C1627.26 165.41 1623.19 173.38 1623.19 183.214C1623.19 191.353 1626.08 197.965 1631.84 203.052C1637.61 207.8 1647.61 211.53 1661.86 214.243L1705.62 222.89C1729.02 227.638 1746.66 236.455 1758.53 249.341C1770.4 262.227 1776.34 277.827 1776.34 296.139C1776.34 319.538 1767.18 338.697 1748.87 353.618C1730.89 368.539 1706.64 376 1676.11 376Z"/>
<path d="M1931.55 369.896C1908.14 369.896 1890.5 365.148 1878.63 355.653C1867.1 345.819 1861.33 330.728 1861.33 310.382V56.5549L1910.18 24V299.699C1910.18 309.534 1912.38 316.655 1916.79 321.064C1921.54 325.472 1930.19 327.676 1942.74 327.676H1981.92V369.896H1931.55ZM1811.47 115.561H1967.67V156.254H1811.47V115.561Z"/>
<path d="M2140.08 376C2115.66 376 2094.12 370.574 2075.47 359.723C2056.81 348.532 2042.39 332.933 2032.22 312.925C2022.04 292.578 2016.95 269.349 2016.95 243.237C2016.95 217.125 2022.04 193.896 2032.22 173.549C2042.39 153.202 2056.47 137.434 2074.45 126.243C2092.76 115.052 2113.79 109.457 2137.54 109.457C2159.93 109.457 2179.6 114.543 2196.56 124.717C2213.86 134.89 2227.26 149.472 2236.75 168.462C2246.25 187.114 2251 208.987 2251 234.081C2251 235.098 2251 236.794 2251 239.168C2251 241.202 2250.83 243.746 2250.49 246.798H2047.48V206.104H2222L2199.1 226.451C2199.1 224.416 2199.1 222.381 2199.1 220.347C2199.1 218.312 2199.1 216.277 2199.1 214.243C2199.1 194.574 2193.34 178.975 2181.8 167.445C2170.61 155.915 2155.85 150.15 2137.54 150.15C2125.33 150.15 2114.13 152.863 2103.96 158.289C2094.12 163.715 2085.98 171.345 2079.54 181.179C2073.43 191.013 2070.04 202.035 2069.36 214.243C2069.02 216.277 2068.68 218.482 2068.34 220.855C2068 222.89 2067.66 225.094 2067.32 227.468C2066.99 229.842 2066.65 232.046 2066.31 234.081C2065.97 236.116 2065.63 238.32 2065.29 240.694C2065.29 269.857 2072.07 292.748 2085.64 309.364C2099.21 325.642 2117.53 333.78 2140.59 333.78C2155.85 333.78 2168.57 330.22 2178.75 323.098C2189.27 315.977 2196.56 306.143 2200.63 293.595H2248.96C2243.88 317.672 2231.84 337.511 2212.84 353.11C2193.85 368.37 2169.59 376 2140.08 376Z"/>
</mask>
<path d="M850 115.561H902.406L968.55 342.428H954.812L1024.01 115.561H1078.45L1147.14 342.428H1133.4L1200.05 115.561H1251.44L1167.49 369.896H1110.5L1046.9 162.358H1054.54L988.902 369.896H931.916L850 115.561Z" fill="black"/>
<path d="M1372.55 376C1347.45 376 1326.93 369.048 1310.99 355.145C1295.38 341.241 1287.58 322.42 1287.58 298.682C1287.58 272.909 1295.89 253.58 1312.51 240.694C1329.47 227.807 1353.22 221.025 1383.74 220.347L1458.54 219.329V211.699C1458.54 191.353 1453.45 176.092 1443.27 165.919C1433.1 155.746 1418.68 150.659 1400.03 150.659C1381.37 150.659 1366.95 154.898 1356.78 163.376C1346.94 171.514 1341.34 181.01 1339.99 191.861H1289.62C1291.31 177.958 1296.57 164.732 1305.39 152.185C1314.55 139.299 1327.27 128.956 1343.55 121.156C1359.83 113.356 1378.83 109.457 1400.53 109.457C1423.94 109.457 1443.44 114.035 1459.05 123.191C1474.65 132.008 1486.18 144.046 1493.64 159.306C1501.11 174.566 1504.84 192.031 1504.84 211.699V310.89C1505.18 323.098 1506.02 334.119 1507.38 343.954C1508.74 353.788 1510.94 362.435 1514 369.896H1466.17L1465.66 366.844C1463.62 355.314 1462.1 344.462 1461.08 334.289C1460.06 324.116 1459.89 311.908 1460.57 297.665L1466.17 315.468C1459.38 333.78 1448.02 348.532 1432.08 359.723C1416.14 370.574 1396.29 376 1372.55 376ZM1384.25 335.306C1401.55 335.306 1416.65 331.237 1429.54 323.098C1442.42 314.62 1452.09 302.921 1458.54 288V260.023L1384.25 261.04C1368.99 261.38 1357.12 264.432 1348.64 270.197C1340.16 275.622 1335.92 284.439 1335.92 296.647C1335.92 308.855 1340.33 318.351 1349.15 325.133C1358.3 331.915 1370.01 335.306 1384.25 335.306Z" fill="black"/>
<path d="M1676.11 376C1655.08 376 1636.42 372.439 1620.14 365.318C1604.2 358.197 1591.48 348.532 1581.98 336.324C1572.48 323.776 1566.89 309.534 1565.19 293.595H1614.03C1615.73 306.821 1622.34 316.994 1633.88 324.116C1645.41 330.898 1659.83 334.289 1677.12 334.289C1693.75 334.289 1706.47 331.067 1715.28 324.624C1724.44 318.181 1729.02 309.703 1729.02 299.191C1729.02 291.73 1726.14 285.457 1720.37 280.37C1714.61 275.283 1704.43 271.044 1689.84 267.653L1646.6 257.988C1623.19 252.563 1605.38 243.746 1593.17 231.538C1581.3 219.329 1575.37 204.408 1575.37 186.775C1575.37 171.854 1579.44 158.628 1587.58 147.098C1596.06 135.229 1607.59 126.073 1622.17 119.63C1637.1 112.848 1654.06 109.457 1673.05 109.457C1701.55 109.457 1724.44 116.578 1741.74 130.821C1759.38 145.064 1770.06 163.884 1773.8 187.283H1724.95C1723.59 176.432 1718.17 167.445 1708.67 160.324C1699.51 153.202 1686.96 149.642 1671.02 149.642C1655.76 149.642 1643.88 152.863 1635.4 159.306C1627.26 165.41 1623.19 173.38 1623.19 183.214C1623.19 191.353 1626.08 197.965 1631.84 203.052C1637.61 207.8 1647.61 211.53 1661.86 214.243L1705.62 222.89C1729.02 227.638 1746.66 236.455 1758.53 249.341C1770.4 262.227 1776.34 277.827 1776.34 296.139C1776.34 319.538 1767.18 338.697 1748.87 353.618C1730.89 368.539 1706.64 376 1676.11 376Z" fill="black"/>
<path d="M1931.55 369.896C1908.14 369.896 1890.5 365.148 1878.63 355.653C1867.1 345.819 1861.33 330.728 1861.33 310.382V56.5549L1910.18 24V299.699C1910.18 309.534 1912.38 316.655 1916.79 321.064C1921.54 325.472 1930.19 327.676 1942.74 327.676H1981.92V369.896H1931.55ZM1811.47 115.561H1967.67V156.254H1811.47V115.561Z" fill="black"/>
<path d="M2140.08 376C2115.66 376 2094.12 370.574 2075.47 359.723C2056.81 348.532 2042.39 332.933 2032.22 312.925C2022.04 292.578 2016.95 269.349 2016.95 243.237C2016.95 217.125 2022.04 193.896 2032.22 173.549C2042.39 153.202 2056.47 137.434 2074.45 126.243C2092.76 115.052 2113.79 109.457 2137.54 109.457C2159.93 109.457 2179.6 114.543 2196.56 124.717C2213.86 134.89 2227.26 149.472 2236.75 168.462C2246.25 187.114 2251 208.987 2251 234.081C2251 235.098 2251 236.794 2251 239.168C2251 241.202 2250.83 243.746 2250.49 246.798H2047.48V206.104H2222L2199.1 226.451C2199.1 224.416 2199.1 222.381 2199.1 220.347C2199.1 218.312 2199.1 216.277 2199.1 214.243C2199.1 194.574 2193.34 178.975 2181.8 167.445C2170.61 155.915 2155.85 150.15 2137.54 150.15C2125.33 150.15 2114.13 152.863 2103.96 158.289C2094.12 163.715 2085.98 171.345 2079.54 181.179C2073.43 191.013 2070.04 202.035 2069.36 214.243C2069.02 216.277 2068.68 218.482 2068.34 220.855C2068 222.89 2067.66 225.094 2067.32 227.468C2066.99 229.842 2066.65 232.046 2066.31 234.081C2065.97 236.116 2065.63 238.32 2065.29 240.694C2065.29 269.857 2072.07 292.748 2085.64 309.364C2099.21 325.642 2117.53 333.78 2140.59 333.78C2155.85 333.78 2168.57 330.22 2178.75 323.098C2189.27 315.977 2196.56 306.143 2200.63 293.595H2248.96C2243.88 317.672 2231.84 337.511 2212.84 353.11C2193.85 368.37 2169.59 376 2140.08 376Z" fill="black"/>
<path d="M850 115.561H902.406L968.55 342.428H954.812L1024.01 115.561H1078.45L1147.14 342.428H1133.4L1200.05 115.561H1251.44L1167.49 369.896H1110.5L1046.9 162.358H1054.54L988.902 369.896H931.916L850 115.561Z" stroke="black" stroke-linejoin="round" mask="url(#path-2-outside-1_15_344)"/>
<path d="M1372.55 376C1347.45 376 1326.93 369.048 1310.99 355.145C1295.38 341.241 1287.58 322.42 1287.58 298.682C1287.58 272.909 1295.89 253.58 1312.51 240.694C1329.47 227.807 1353.22 221.025 1383.74 220.347L1458.54 219.329V211.699C1458.54 191.353 1453.45 176.092 1443.27 165.919C1433.1 155.746 1418.68 150.659 1400.03 150.659C1381.37 150.659 1366.95 154.898 1356.78 163.376C1346.94 171.514 1341.34 181.01 1339.99 191.861H1289.62C1291.31 177.958 1296.57 164.732 1305.39 152.185C1314.55 139.299 1327.27 128.956 1343.55 121.156C1359.83 113.356 1378.83 109.457 1400.53 109.457C1423.94 109.457 1443.44 114.035 1459.05 123.191C1474.65 132.008 1486.18 144.046 1493.64 159.306C1501.11 174.566 1504.84 192.031 1504.84 211.699V310.89C1505.18 323.098 1506.02 334.119 1507.38 343.954C1508.74 353.788 1510.94 362.435 1514 369.896H1466.17L1465.66 366.844C1463.62 355.314 1462.1 344.462 1461.08 334.289C1460.06 324.116 1459.89 311.908 1460.57 297.665L1466.17 315.468C1459.38 333.78 1448.02 348.532 1432.08 359.723C1416.14 370.574 1396.29 376 1372.55 376ZM1384.25 335.306C1401.55 335.306 1416.65 331.237 1429.54 323.098C1442.42 314.62 1452.09 302.921 1458.54 288V260.023L1384.25 261.04C1368.99 261.38 1357.12 264.432 1348.64 270.197C1340.16 275.622 1335.92 284.439 1335.92 296.647C1335.92 308.855 1340.33 318.351 1349.15 325.133C1358.3 331.915 1370.01 335.306 1384.25 335.306Z" stroke="black" stroke-linejoin="round" mask="url(#path-2-outside-1_15_344)"/>
<path d="M1676.11 376C1655.08 376 1636.42 372.439 1620.14 365.318C1604.2 358.197 1591.48 348.532 1581.98 336.324C1572.48 323.776 1566.89 309.534 1565.19 293.595H1614.03C1615.73 306.821 1622.34 316.994 1633.88 324.116C1645.41 330.898 1659.83 334.289 1677.12 334.289C1693.75 334.289 1706.47 331.067 1715.28 324.624C1724.44 318.181 1729.02 309.703 1729.02 299.191C1729.02 291.73 1726.14 285.457 1720.37 280.37C1714.61 275.283 1704.43 271.044 1689.84 267.653L1646.6 257.988C1623.19 252.563 1605.38 243.746 1593.17 231.538C1581.3 219.329 1575.37 204.408 1575.37 186.775C1575.37 171.854 1579.44 158.628 1587.58 147.098C1596.06 135.229 1607.59 126.073 1622.17 119.63C1637.1 112.848 1654.06 109.457 1673.05 109.457C1701.55 109.457 1724.44 116.578 1741.74 130.821C1759.38 145.064 1770.06 163.884 1773.8 187.283H1724.95C1723.59 176.432 1718.17 167.445 1708.67 160.324C1699.51 153.202 1686.96 149.642 1671.02 149.642C1655.76 149.642 1643.88 152.863 1635.4 159.306C1627.26 165.41 1623.19 173.38 1623.19 183.214C1623.19 191.353 1626.08 197.965 1631.84 203.052C1637.61 207.8 1647.61 211.53 1661.86 214.243L1705.62 222.89C1729.02 227.638 1746.66 236.455 1758.53 249.341C1770.4 262.227 1776.34 277.827 1776.34 296.139C1776.34 319.538 1767.18 338.697 1748.87 353.618C1730.89 368.539 1706.64 376 1676.11 376Z" stroke="black" stroke-linejoin="round" mask="url(#path-2-outside-1_15_344)"/>
<path d="M1931.55 369.896C1908.14 369.896 1890.5 365.148 1878.63 355.653C1867.1 345.819 1861.33 330.728 1861.33 310.382V56.5549L1910.18 24V299.699C1910.18 309.534 1912.38 316.655 1916.79 321.064C1921.54 325.472 1930.19 327.676 1942.74 327.676H1981.92V369.896H1931.55ZM1811.47 115.561H1967.67V156.254H1811.47V115.561Z" stroke="black" stroke-linejoin="round" mask="url(#path-2-outside-1_15_344)"/>
<path d="M2140.08 376C2115.66 376 2094.12 370.574 2075.47 359.723C2056.81 348.532 2042.39 332.933 2032.22 312.925C2022.04 292.578 2016.95 269.349 2016.95 243.237C2016.95 217.125 2022.04 193.896 2032.22 173.549C2042.39 153.202 2056.47 137.434 2074.45 126.243C2092.76 115.052 2113.79 109.457 2137.54 109.457C2159.93 109.457 2179.6 114.543 2196.56 124.717C2213.86 134.89 2227.26 149.472 2236.75 168.462C2246.25 187.114 2251 208.987 2251 234.081C2251 235.098 2251 236.794 2251 239.168C2251 241.202 2250.83 243.746 2250.49 246.798H2047.48V206.104H2222L2199.1 226.451C2199.1 224.416 2199.1 222.381 2199.1 220.347C2199.1 218.312 2199.1 216.277 2199.1 214.243C2199.1 194.574 2193.34 178.975 2181.8 167.445C2170.61 155.915 2155.85 150.15 2137.54 150.15C2125.33 150.15 2114.13 152.863 2103.96 158.289C2094.12 163.715 2085.98 171.345 2079.54 181.179C2073.43 191.013 2070.04 202.035 2069.36 214.243C2069.02 216.277 2068.68 218.482 2068.34 220.855C2068 222.89 2067.66 225.094 2067.32 227.468C2066.99 229.842 2066.65 232.046 2066.31 234.081C2065.97 236.116 2065.63 238.32 2065.29 240.694C2065.29 269.857 2072.07 292.748 2085.64 309.364C2099.21 325.642 2117.53 333.78 2140.59 333.78C2155.85 333.78 2168.57 330.22 2178.75 323.098C2189.27 315.977 2196.56 306.143 2200.63 293.595H2248.96C2243.88 317.672 2231.84 337.511 2212.84 353.11C2193.85 368.37 2169.59 376 2140.08 376Z" stroke="black" stroke-linejoin="round" mask="url(#path-2-outside-1_15_344)"/>
</svg>
