<svg width="47" height="47" viewBox="0 0 47 47" fill="none" xmlns="http://www.w3.org/2000/svg">
<path d="M23.5 0C36.4787 0 47 10.5213 47 23.5C47 36.4787 36.4787 47 23.5 47C10.5213 47 0 36.4787 0 23.5C0 10.5213 10.5213 0 23.5 0ZM24.7764 32.6299L28.3799 39L28.3975 36.374H30.1504C35.8484 36.3716 36.6395 32.3994 39.3857 26.7852C38.5253 27.8203 37.3374 28.371 35.9824 28.5146L28.3975 28.5312L28.3799 26.1689L24.7764 32.6299ZM8.29297 26.6875C10.1477 30.2058 12.0396 35.1992 16.0947 36.4316H22.3086L22.3262 36.4082L22.3428 28.5771H16.9746C15.2026 28.5734 13.4302 28.5705 11.6582 28.5664C10.7342 28.5663 9.14306 27.4599 8.29297 26.6875ZM8.06445 17.9717L10.5918 19.3594L8 24.6416C8.64712 26.3015 9.89064 27.7076 11.6777 28.124C12.5941 28.14 13.5104 28.1559 14.4268 28.1719C15.2231 26.4913 16.0201 24.8105 16.8164 23.1299L19.2988 24.6162L15.6377 17.9717H8.06445ZM29.9619 21.9277L33.3086 28.0918L35.9902 28.1211C37.5627 28.1381 40.096 25.9559 39.9971 24.3877L36.7246 17.835L29.9619 21.9277ZM23.4854 11.6357C22.2602 9.93838 20.3187 7.24591 16.9678 8.49316L13.5127 13.668L20.2295 17.8809L23.4854 11.6357ZM20.5723 8.01758C21.5237 8.58585 22.7799 9.85762 23.8193 11.3154C24.9802 12.9436 25.9087 14.816 26.6035 16.4531L24.1367 17.8008L32.0186 17.7832L35.6738 11.2764L33.7314 12.5146L32.4756 10.3057C31.6434 9.05495 30.8805 8.14094 29.3115 8L20.5723 8.01758Z" fill="black"/>
</svg>
