<svg width="323" height="62" viewBox="0 0 323 62" fill="none" xmlns="http://www.w3.org/2000/svg">
<path d="M69.623 15.4717V20.2236L58.793 31.0537L69.623 41.8838V46.416L54.1514 61.8877H38.6797V0H54.1514L69.623 15.4717Z" fill="black"/>
<path d="M30.9434 46.416L15.4717 61.8877H0V0H15.4717L30.9434 15.4717V46.416Z" fill="black"/>
<path d="M108.303 15.4717L92.8311 30.9434H77.3594V15.4717L92.8311 0H108.303V15.4717Z" fill="black"/>
<path d="M108.303 46.415L92.8311 61.8867H77.3594V46.415L92.8311 30.9434H108.303V46.415Z" fill="black"/>
<path d="M143.129 48.582L133.105 13.1058H141.628L147.864 38.05H148.187L154.562 13.1058H162.992L169.367 37.9114H169.713L175.857 13.1058H184.403L174.356 48.582H165.648L158.997 24.6079H158.512L151.86 48.582H143.129ZM200.449 49.298C198.201 49.298 196.176 48.8977 194.375 48.097C192.589 47.2809 191.172 46.0799 190.125 44.4939C189.093 42.908 188.577 40.9525 188.577 38.6274C188.577 36.6257 188.947 34.9705 189.686 33.6617C190.425 32.3529 191.434 31.3058 192.712 30.5206C193.99 29.7353 195.429 29.1425 197.031 28.7421C198.647 28.3264 200.318 28.0261 202.043 27.8414C204.121 27.6258 205.807 27.4333 207.101 27.264C208.394 27.0792 209.333 26.802 209.919 26.4325C210.519 26.0475 210.819 25.4547 210.819 24.654V24.5155C210.819 22.7755 210.304 21.4282 209.272 20.4736C208.24 19.5189 206.754 19.0416 204.814 19.0416C202.766 19.0416 201.142 19.4881 199.941 20.3812C198.755 21.2743 197.955 22.329 197.539 23.5454L189.732 22.4368C190.348 20.2811 191.364 18.4796 192.781 17.0322C194.198 15.5694 195.93 14.4762 197.978 13.7525C200.026 13.0134 202.289 12.6439 204.768 12.6439C206.477 12.6439 208.179 12.844 209.872 13.2444C211.566 13.6447 213.114 14.3068 214.515 15.2307C215.916 16.1391 217.04 17.3786 217.887 18.9492C218.749 20.5198 219.18 22.483 219.18 24.8388V48.582H211.143V43.7087H210.866C210.357 44.6941 209.641 45.618 208.718 46.4802C207.809 47.3271 206.662 48.0123 205.276 48.5358C203.906 49.044 202.297 49.298 200.449 49.298ZM202.62 43.1544C204.298 43.1544 205.754 42.8233 206.985 42.1612C208.217 41.4837 209.164 40.5906 209.826 39.482C210.504 38.3734 210.842 37.1647 210.842 35.8559V31.6754C210.581 31.891 210.134 32.0911 209.503 32.2759C208.887 32.4607 208.194 32.6223 207.424 32.7609C206.654 32.8995 205.892 33.0227 205.138 33.1305C204.383 33.2383 203.729 33.3306 203.174 33.4076C201.927 33.577 200.811 33.8542 199.825 34.2391C198.84 34.624 198.062 35.163 197.493 35.8559C196.923 36.5334 196.638 37.411 196.638 38.4889C196.638 40.0286 197.2 41.1911 198.324 41.9764C199.448 42.7617 200.88 43.1544 202.62 43.1544ZM255.627 22.483L248.005 23.3145C247.789 22.5446 247.412 21.8209 246.873 21.1434C246.349 20.4659 245.641 19.9193 244.748 19.5035C243.855 19.0878 242.762 18.8799 241.468 18.8799C239.728 18.8799 238.266 19.2572 237.08 20.0117C235.91 20.7661 235.332 21.7439 235.348 22.9449C235.332 23.9766 235.71 24.8157 236.48 25.4624C237.265 26.1091 238.558 26.6403 240.36 27.0561L246.411 28.3495C249.768 29.0732 252.262 30.2203 253.894 31.7909C255.542 33.3614 256.373 35.417 256.389 37.9576C256.373 40.1903 255.719 42.1612 254.426 43.8703C253.148 45.5641 251.369 46.8883 249.09 47.8429C246.811 48.7976 244.194 49.2749 241.237 49.2749C236.895 49.2749 233.4 48.3665 230.752 46.5495C228.103 44.7172 226.525 42.1689 226.017 38.9046L234.17 38.1193C234.539 39.7207 235.325 40.9294 236.526 41.7455C237.727 42.5615 239.29 42.9696 241.214 42.9696C243.201 42.9696 244.794 42.5615 245.995 41.7455C247.212 40.9294 247.82 39.9208 247.82 38.7198C247.82 37.7036 247.427 36.8644 246.642 36.2023C245.872 35.5402 244.671 35.0321 243.039 34.6779L236.988 33.4076C233.585 32.6993 231.067 31.506 229.435 29.8277C227.803 28.1339 226.995 25.9936 227.01 23.4068C226.995 21.2204 227.587 19.3265 228.788 17.7251C230.005 16.1083 231.691 14.8611 233.847 13.9835C236.018 13.0904 238.52 12.6439 241.353 12.6439C245.51 12.6439 248.782 13.5292 251.169 15.3C253.571 17.0707 255.057 19.465 255.627 22.483ZM280.998 13.1058V19.5728H260.604V13.1058H280.998ZM265.639 4.60628H274V37.9114C274 39.0355 274.169 39.8977 274.508 40.4983C274.862 41.0834 275.324 41.4837 275.894 41.6993C276.463 41.9148 277.095 42.0226 277.788 42.0226C278.311 42.0226 278.789 41.9841 279.22 41.9071C279.666 41.8302 280.005 41.7609 280.236 41.6993L281.645 48.2356C281.198 48.3896 280.559 48.5589 279.728 48.7437C278.912 48.9285 277.911 49.0363 276.725 49.0671C274.631 49.1286 272.745 48.813 271.067 48.1201C269.388 47.4118 268.056 46.3186 267.071 44.8404C266.101 43.3622 265.624 41.5145 265.639 39.2972V4.60628ZM303.315 49.2749C299.758 49.2749 296.686 48.5358 294.1 47.0577C291.528 45.5641 289.55 43.4546 288.164 40.7292C286.778 37.9884 286.085 34.7626 286.085 31.0518C286.085 27.4025 286.778 24.1998 288.164 21.4436C289.565 18.6721 291.52 16.5164 294.03 14.9766C296.54 13.4214 299.489 12.6439 302.876 12.6439C305.063 12.6439 307.126 12.998 309.066 13.7063C311.022 14.3992 312.746 15.477 314.24 16.9398C315.749 18.4026 316.934 20.2657 317.797 22.5292C318.659 24.7772 319.09 27.4564 319.09 30.5668V33.1305H290.011V27.4949H311.076C311.06 25.8936 310.714 24.4693 310.036 23.2221C309.359 21.9595 308.412 20.9663 307.195 20.2426C305.994 19.5189 304.593 19.1571 302.992 19.1571C301.283 19.1571 299.781 19.5728 298.488 20.4043C297.195 21.2204 296.186 22.2982 295.462 23.6378C294.754 24.962 294.392 26.4171 294.377 28.003V32.9226C294.377 34.9859 294.754 36.7566 295.508 38.2348C296.263 39.6976 297.318 40.8216 298.673 41.6069C300.028 42.3768 301.614 42.7617 303.431 42.7617C304.647 42.7617 305.748 42.5923 306.733 42.2536C307.719 41.8994 308.573 41.3836 309.297 40.7061C310.021 40.0286 310.567 39.1895 310.937 38.1886L318.744 39.0663C318.251 41.1296 317.312 42.9311 315.926 44.4709C314.555 45.9952 312.8 47.1808 310.66 48.0277C308.519 48.8592 306.071 49.2749 303.315 49.2749Z" fill="black"/>
</svg>
