<svg width="1821" height="400" viewBox="0 0 1821 400" fill="none" xmlns="http://www.w3.org/2000/svg">
<path d="M119.92 312H175.469L217.792 159.46H220.878L263.201 312H316.799L219.999 400H0V200L70.2324 136.151L119.92 312ZM439.999 200L319.229 309.79L382.529 86.2764H328.155L289.065 244.106H286.861L246.302 86.2764H192.662L152.103 244.988H150.046L113.094 97.1855L219.999 0H439.999V200Z" fill="#053B1F"/>
<path d="M665.087 314L600.299 84.7045H655.384L695.69 245.928H697.78L738.981 84.7045H793.469L834.67 245.032H836.91L876.618 84.7045H931.852L866.915 314H810.636L767.643 159.046H764.508L721.515 314H665.087ZM1035.57 318.628C1021.04 318.628 1007.95 316.04 996.304 310.865C984.76 305.591 975.604 297.828 968.837 287.577C962.169 277.327 958.835 264.688 958.835 249.66C958.835 236.722 961.223 226.024 966 217.565C970.777 209.105 977.296 202.338 985.556 197.262C993.816 192.187 1003.12 188.355 1013.47 185.768C1023.92 183.081 1034.72 181.14 1045.87 179.946C1059.3 178.552 1070.2 177.308 1078.56 176.214C1086.92 175.019 1092.99 173.228 1096.77 170.84C1100.65 168.352 1102.59 164.52 1102.59 159.345V158.449C1102.59 147.203 1099.26 138.495 1092.59 132.325C1085.92 126.155 1076.32 123.07 1063.78 123.07C1050.54 123.07 1040.04 125.956 1032.28 131.728C1024.62 137.5 1019.44 144.317 1016.76 152.18L966.299 145.014C970.28 131.081 976.848 119.437 986.004 110.082C995.16 100.628 1006.36 93.5619 1019.59 88.8844C1032.83 84.1074 1047.46 81.7189 1063.48 81.7189C1074.53 81.7189 1085.52 83.0127 1096.47 85.6002C1107.42 88.1878 1117.42 92.4671 1126.48 98.4384C1135.53 104.31 1142.8 112.322 1148.27 122.473C1153.85 132.624 1156.63 145.313 1156.63 160.539V314H1104.68V282.502H1102.89C1099.61 288.871 1094.98 294.842 1089.01 300.415C1083.14 305.889 1075.72 310.318 1066.76 313.701C1057.91 316.986 1047.51 318.628 1035.57 318.628ZM1049.6 278.919C1060.45 278.919 1069.85 276.779 1077.81 272.5C1085.77 268.121 1091.89 262.349 1096.17 255.183C1100.55 248.018 1102.74 240.205 1102.74 231.746V204.726C1101.05 206.12 1098.16 207.413 1094.08 208.608C1090.1 209.802 1085.62 210.847 1080.65 211.743C1075.67 212.638 1070.75 213.434 1065.87 214.131C1060.99 214.828 1056.76 215.425 1053.18 215.922C1045.12 217.017 1037.9 218.809 1031.53 221.297C1025.17 223.785 1020.14 227.268 1016.46 231.746C1012.77 236.125 1010.93 241.798 1010.93 248.764C1010.93 258.716 1014.57 266.23 1021.83 271.306C1029.1 276.381 1038.35 278.919 1049.6 278.919ZM1392.2 145.313L1342.93 150.687C1341.54 145.711 1339.1 141.033 1335.62 136.654C1332.24 132.275 1327.66 128.742 1321.89 126.055C1316.11 123.368 1309.05 122.025 1300.69 122.025C1289.44 122.025 1279.99 124.463 1272.32 129.34C1264.76 134.216 1261.03 140.536 1261.13 148.298C1261.03 154.966 1263.47 160.39 1268.44 164.57C1273.52 168.75 1281.88 172.183 1293.52 174.87L1332.63 183.23C1354.33 187.907 1370.45 195.322 1381 205.473C1391.65 215.624 1397.02 228.91 1397.12 245.331C1397.02 259.761 1392.79 272.5 1384.43 283.547C1376.17 294.494 1364.68 303.053 1349.95 309.223C1335.22 315.393 1318.3 318.478 1299.2 318.478C1271.13 318.478 1248.54 312.607 1231.42 300.863C1214.3 289.02 1204.1 272.55 1200.82 251.451L1253.52 246.376C1255.9 256.726 1260.98 264.538 1268.74 269.813C1276.5 275.087 1286.61 277.725 1299.05 277.725C1311.88 277.725 1322.18 275.087 1329.95 269.813C1337.81 264.538 1341.74 258.02 1341.74 250.257C1341.74 243.689 1339.2 238.265 1334.13 233.985C1329.15 229.706 1321.39 226.422 1310.84 224.133L1271.73 215.922C1249.73 211.345 1233.46 203.632 1222.91 192.784C1212.36 181.837 1207.14 168.003 1207.24 151.284C1207.14 137.152 1210.97 124.911 1218.73 114.561C1226.59 104.111 1237.49 96.0499 1251.43 90.3772C1265.46 84.605 1281.63 81.7189 1299.94 81.7189C1326.81 81.7189 1347.96 87.4414 1363.39 98.8862C1378.91 110.331 1388.51 125.807 1392.2 145.313ZM1556.18 84.7045V126.503H1424.37V84.7045H1556.18ZM1456.91 29.7692H1510.95V245.032C1510.95 252.297 1512.04 257.87 1514.23 261.752C1516.52 265.533 1519.51 268.121 1523.19 269.514C1526.87 270.908 1530.95 271.604 1535.43 271.604C1538.82 271.604 1541.9 271.355 1544.69 270.858C1547.57 270.36 1549.76 269.912 1551.26 269.514L1560.36 311.761C1557.48 312.756 1553.35 313.851 1547.97 315.045C1542.7 316.239 1536.23 316.936 1528.57 317.135C1515.03 317.533 1502.84 315.493 1491.99 311.014C1481.14 306.436 1472.54 299.37 1466.17 289.816C1459.9 280.263 1456.81 268.32 1456.91 253.989V29.7692ZM1700.42 318.478C1677.44 318.478 1657.58 313.701 1640.86 304.147C1624.24 294.494 1611.45 280.86 1602.5 263.244C1593.54 245.53 1589.06 224.68 1589.06 200.696C1589.06 177.109 1593.54 156.409 1602.5 138.595C1611.55 120.681 1624.19 106.748 1640.41 96.7963C1656.64 86.7447 1675.69 81.7189 1697.59 81.7189C1711.72 81.7189 1725.06 84.0079 1737.6 88.5858C1750.24 93.0643 1761.38 100.031 1771.03 109.485C1780.79 118.94 1788.45 130.982 1794.02 145.611C1799.6 160.141 1802.38 177.458 1802.38 197.561V214.131H1614.44V177.707H1750.58C1750.48 167.356 1748.24 158.151 1743.87 150.09C1739.49 141.929 1733.37 135.51 1725.5 130.832C1717.74 126.155 1708.69 123.816 1698.34 123.816C1687.29 123.816 1677.58 126.503 1669.23 131.877C1660.87 137.152 1654.35 144.118 1649.67 152.777C1645.09 161.335 1642.75 170.74 1642.65 180.991V212.788C1642.65 226.123 1645.09 237.568 1649.97 247.122C1654.84 256.577 1661.66 263.842 1670.42 268.917C1679.18 273.893 1689.43 276.381 1701.17 276.381C1709.03 276.381 1716.15 275.286 1722.52 273.097C1728.89 270.808 1734.41 267.474 1739.09 263.095C1743.77 258.716 1747.3 253.292 1749.69 246.824L1800.14 252.496C1796.96 265.832 1790.89 277.476 1781.93 287.428C1773.08 297.281 1761.73 304.944 1747.9 310.417C1734.06 315.791 1718.24 318.478 1700.42 318.478Z" fill="#053B1F"/>
</svg>
